<svg width="124" height="109" viewBox="0 0 124 109" fill="none" xmlns="http://www.w3.org/2000/svg">
<rect x="2.5" y="2.5" width="119" height="104" rx="3.5" stroke="#000F4B" stroke-width="5"/>
<path d="M89.343 33.304C93.3963 33.304 96.7883 33.688 99.519 34.456C102.292 35.1813 104.362 36.3973 105.727 38.104C107.135 39.768 107.839 42.0293 107.839 44.888C107.839 46.5947 107.562 48.152 107.007 49.56C106.452 50.968 105.642 52.12 104.575 53.016C103.551 53.912 102.292 54.488 100.799 54.744V55.064C102.335 55.3627 103.722 55.896 104.959 56.664C106.196 57.432 107.178 58.5413 107.903 59.992C108.628 61.4427 108.991 63.3627 108.991 65.752C108.991 68.5253 108.308 70.9147 106.943 72.92C105.62 74.8827 103.7 76.3973 101.183 77.464C98.6657 78.488 95.679 79 92.223 79H75.135V33.304H89.343ZM90.431 51.416C93.247 51.416 95.1883 50.968 96.255 50.072C97.3643 49.176 97.919 47.8747 97.919 46.168C97.919 44.4187 97.279 43.16 95.999 42.392C94.719 41.624 92.6923 41.24 89.919 41.24H84.799V51.416H90.431ZM84.799 59.096V71H91.135C94.0363 71 96.063 70.4453 97.215 69.336C98.367 68.184 98.943 66.6693 98.943 64.792C98.943 63.64 98.687 62.6373 98.175 61.784C97.7057 60.9307 96.8737 60.2693 95.679 59.8C94.4843 59.3307 92.863 59.096 90.815 59.096H84.799Z" fill="#43FF75"/>
<path d="M34.088 79L23.08 43.16H22.824C22.8667 44.0133 22.9307 45.2933 23.016 47C23.1013 48.7067 23.1867 50.5413 23.272 52.504C23.3573 54.424 23.4 56.1733 23.4 57.752V79H14.76V33.304H27.944L38.76 68.248H38.952L50.408 33.304H63.592V79H54.568V57.368C54.568 55.9173 54.5893 54.2533 54.632 52.376C54.7173 50.4987 54.7813 48.728 54.824 47.064C54.9093 45.3573 54.9733 44.0773 55.016 43.224H54.76L42.984 79H34.088Z" fill="#43FF75"/>
</svg>
