<?xml version="1.0" standalone="no"?>
<!DOCTYPE svg PUBLIC "-//W3C//DTD SVG 20010904//EN"
 "http://www.w3.org/TR/2001/REC-SVG-20010904/DTD/svg10.dtd">
<svg version="1.0" xmlns="http://www.w3.org/2000/svg"
 width="300.000000pt" height="300.000000pt" viewBox="0 0 300.000000 300.000000"
 preserveAspectRatio="xMidYMid meet">

<g transform="translate(0.000000,300.000000) scale(0.100000,-0.100000)"
fill="#30b009" stroke="none">
<path d="M380 2501 c0 -36 87 -45 108 -11 13 21 32 27 32 10 0 -5 -8 -10 -17
-10 -14 -1 -12 -4 7 -15 33 -19 46 -19 30 0 -11 13 -10 14 3 9 15 -5 16 -93
17 -942 0 -652 4 -939 11 -948 6 -7 9 -19 6 -26 -3 -7 -6 -4 -6 7 -1 16 -5 14
-21 -12 -11 -18 -28 -33 -37 -34 -10 0 -43 -1 -73 -2 -48 -2 -55 -5 -55 -22 0
-19 8 -20 173 -23 l172 -2 1 22 c1 22 1 22 9 -2 7 -23 8 -23 9 -3 1 12 7 24
13 27 7 3 -22 4 -65 3 l-78 -2 -6 37 c-3 21 -8 36 -12 34 -3 -2 -5 418 -3 934
l2 938 -26 21 c-19 15 -22 21 -11 21 9 0 21 -8 26 -17 9 -16 12 -16 20 -3 8
12 13 12 23 2 9 -9 9 -12 -5 -12 -9 0 -17 -4 -17 -10 0 -5 6 -10 14 -10 8 0
16 -5 18 -12 3 -7 18 -13 34 -14 16 -1 33 -2 38 -3 4 0 5 -12 2 -26 -5 -18 -2
-25 8 -25 7 0 20 -8 27 -17 9 -11 10 -14 2 -9 -9 5 -11 2 -7 -8 8 -20 14 -20
31 2 11 15 12 13 1 -12 -10 -23 -10 -30 2 -40 8 -6 15 -15 15 -21 0 -5 17 -46
38 -90 21 -44 50 -106 64 -137 15 -31 31 -54 36 -51 5 3 7 -3 5 -14 -1 -10 9
-38 23 -63 14 -25 29 -57 33 -72 8 -35 24 -36 32 -3 4 14 9 24 12 21 2 -3 -1
-19 -8 -36 -10 -24 -10 -36 0 -60 7 -16 16 -30 21 -30 5 0 9 -7 9 -15 0 -25
33 -84 43 -78 6 3 7 1 3 -5 -9 -15 14 -62 31 -62 7 0 13 -7 13 -16 0 -8 -5
-12 -11 -8 -11 6 10 -37 31 -66 9 -12 10 -10 5 10 -5 19 -4 21 4 10 6 -8 7
-26 4 -39 -4 -18 -3 -22 7 -16 8 5 11 4 6 -3 -3 -6 10 -47 31 -92 29 -64 39
-77 45 -63 7 14 7 13 4 -5 -4 -22 27 -95 55 -128 6 -8 9 -14 5 -14 -7 0 19
-54 38 -78 44 -57 128 -132 148 -132 17 0 7 19 -13 25 l-21 7 22 15 c17 12 20
22 16 46 -5 24 -4 27 3 12 8 -19 10 -18 20 9 6 16 14 26 17 23 7 -6 -22 -65
-44 -89 -12 -15 -13 -18 -1 -18 15 0 40 45 148 273 39 81 71 156 71 167 0 33
-18 31 -40 -5 -17 -27 -19 -38 -10 -55 8 -15 8 -25 0 -38 -10 -15 -10 -14 -5
5 3 12 2 24 -4 27 -11 7 -53 -73 -44 -87 8 -14 22 14 16 32 -5 12 -3 13 6 5
10 -10 10 -17 0 -35 -7 -13 -12 -30 -10 -38 1 -7 -2 -10 -7 -7 -6 3 -14 -6
-19 -21 l-10 -28 -7 28 c-3 15 -2 35 4 45 8 13 9 11 5 -13 l-6 -30 14 24 c11
19 12 29 4 43 -9 13 -14 14 -20 5 -6 -8 -7 -6 -3 6 9 28 -10 56 -37 53 -20 -3
-23 1 -19 22 3 16 1 23 -5 19 -6 -4 -13 2 -16 12 -8 32 20 13 32 -21 6 -17 14
-28 17 -25 9 8 -16 67 -27 67 -5 0 -8 3 -7 8 4 13 -25 81 -33 77 -4 -3 -6 1
-5 8 1 10 -61 146 -112 244 -22 43 -29 33 -8 -11 13 -28 14 -39 4 -61 -10 -22
-13 -24 -21 -10 -5 9 -6 19 -3 22 3 4 6 0 6 -8 0 -11 2 -11 10 1 12 19 13 33
1 26 -5 -3 -12 1 -15 10 -3 8 -2 12 4 9 6 -3 10 -2 10 4 0 5 -4 13 -10 16 -5
3 -9 20 -7 38 1 25 -2 32 -17 32 -10 0 -22 10 -27 23 -5 13 -5 22 1 22 6 0 10
-9 10 -20 0 -11 5 -20 10 -20 13 0 13 1 -5 46 -26 65 -38 84 -47 78 -5 -3 -9
0 -7 7 3 29 -1 45 -9 32 -5 -9 -13 -3 -26 20 -12 23 -13 27 -2 13 12 -14 16
-16 16 -5 -1 22 -38 96 -39 77 -1 -10 -5 -18 -11 -18 -6 0 -6 9 0 26 15 39 13
214 -2 214 -9 0 -8 4 2 11 11 7 12 12 3 15 -7 3 -9 12 -6 20 4 11 -8 14 -65
14 -56 0 -74 4 -84 18 -25 34 -103 88 -123 85 -12 -1 -14 0 -6 4 27 11 -41 31
-70 20 -30 -12 -59 -4 -58 15 0 10 2 10 6 1 2 -7 16 -13 31 -13 21 0 23 3 14
13 -10 9 -75 13 -242 14 -219 3 -230 2 -230 -16z m530 -26 c0 -2 -9 -3 -19 -2
-11 0 -18 5 -15 9 4 6 34 0 34 -7z m-57 -22 c-7 -2 -19 -2 -25 0 -7 3 -2 5 12
5 14 0 19 -2 13 -5z m196 -83 c1 -3 -8 -6 -18 -6 -11 0 -18 4 -15 7 9 16 -17
19 -32 5 -19 -20 -25 -20 -18 -1 4 8 11 15 16 15 6 0 8 9 5 20 -5 18 -1 17 28
-7 19 -16 34 -30 34 -33z m-249 10 c0 -5 -2 -10 -4 -10 -3 0 -8 5 -11 10 -3 6
-1 10 4 10 6 0 11 -4 11 -10z m-3 -62 c-3 -8 -6 -5 -6 6 -1 11 2 17 5 13 3 -3
4 -12 1 -19z m410 -165 c-2 -27 -3 -5 -3 47 0 52 1 74 3 48 2 -27 2 -69 0 -95z
m-367 94 c0 -18 -2 -19 -10 -7 -13 20 -13 43 0 35 6 -3 10 -16 10 -28z m33
-51 c3 3 3 -4 0 -17 l-6 -23 -10 22 c-6 12 -14 22 -19 22 -4 0 -8 5 -8 12 0 6
7 4 18 -5 10 -10 21 -14 25 -11z m16 -91 c0 -5 -4 -3 -9 5 -5 8 -9 22 -9 30 0
16 17 -16 18 -35z m22 -12 c-8 -15 -10 -15 -11 -2 0 17 10 32 18 25 2 -3 -1
-13 -7 -23z m30 -21 c-6 -2 -12 -18 -12 -35 -1 -20 -3 -25 -6 -13 -3 11 1 38
8 60 12 36 14 38 17 16 2 -13 -1 -26 -7 -28z m296 -108 c-7 -7 -24 19 -32 46
-5 20 -3 19 15 -9 11 -18 19 -35 17 -37z m-280 24 c-3 -7 -5 -2 -5 12 0 14 2
19 5 13 2 -7 2 -19 0 -25z m73 -53 c-7 -9 -15 -13 -17 -11 -6 6 20 36 26 30 2
-2 -2 -10 -9 -19z m286 -73 c-8 -8 -12 -1 -20 33 l-6 30 16 -28 c8 -16 13 -31
10 -35z m-303 -13 c-4 -4 -9 6 -10 24 -1 30 -1 31 8 8 5 -14 6 -28 2 -32z
m287 -9 c0 -5 -4 -10 -10 -10 -5 0 -10 5 -10 10 0 6 5 10 10 10 6 0 10 -4 10
-10z m-200 -126 c12 -25 19 -49 16 -52 -3 -3 -6 1 -6 9 0 12 -2 11 -10 -1 -8
-11 -9 -7 -4 15 4 23 3 26 -5 15 -6 -8 -11 -13 -12 -10 -4 15 -6 70 -3 70 2 0
13 -21 24 -46z m17 24 c-3 -8 -6 -5 -6 6 -1 11 2 17 5 13 3 -3 4 -12 1 -19z
m295 -90 c-7 -7 -12 -8 -12 -2 0 6 3 14 7 17 3 4 9 5 12 2 2 -3 -1 -11 -7 -17z
m-212 -68 c0 -5 -2 -10 -4 -10 -3 0 -8 5 -11 10 -3 6 -1 10 4 10 6 0 11 -4 11
-10z m276 -45 c9 -13 14 -30 11 -37 -4 -8 -6 -6 -6 5 -1 9 -6 17 -12 17 -6 0
-9 -8 -7 -18 3 -11 0 -19 -7 -19 -10 0 -11 7 -4 24 12 32 11 52 -1 33 -8 -13
-10 -12 -10 3 0 25 17 21 36 -8z m51 -117 c-3 -8 -6 -5 -6 6 -1 11 2 17 5 13
3 -3 4 -12 1 -19z m191 -49 c-13 -37 -17 -34 -11 8 3 18 9 30 14 28 4 -3 3
-19 -3 -36z m-448 -28 c0 -7 -9 -2 -21 13 -11 14 -17 31 -13 37 7 13 33 -25
34 -50z m10 44 c0 -8 -2 -15 -4 -15 -2 0 -6 7 -10 15 -3 8 -1 15 4 15 6 0 10
-7 10 -15z m247 -57 c-3 -8 -6 -5 -6 6 -1 11 2 17 5 13 3 -3 4 -12 1 -19z
m-167 -161 c0 -6 -11 3 -25 19 -14 16 -25 35 -25 43 0 8 11 0 25 -19 14 -19
25 -38 25 -43z m55 -97 c-3 -6 1 -17 9 -26 9 -8 16 -20 16 -26 0 -6 -9 1 -21
16 -17 22 -19 46 -3 46 3 0 2 -5 -1 -10z m-813 -525 c3 -14 1 -25 -3 -25 -5 0
-9 11 -9 25 0 14 2 25 4 25 2 0 6 -11 8 -25z m-32 -4 c0 -6 -4 -12 -8 -15 -5
-3 -9 1 -9 9 0 8 4 15 9 15 4 0 8 -4 8 -9z m-5 -44 l160 -3 -164 1 c-137 0
-165 2 -168 15 -3 11 -2 12 4 3 6 -9 57 -13 168 -16z"/>
<path d="M2197 2440 c-20 -44 -37 -93 -37 -110 0 -16 -4 -30 -10 -30 -5 0 -7
8 -4 18 3 9 -2 4 -11 -11 -9 -15 -15 -40 -12 -55 l3 -27 12 25 c13 26 12 7 -2
-35 -4 -11 1 -4 10 15 10 19 28 56 41 82 12 26 23 56 23 66 0 10 7 19 15 19
14 0 15 -104 13 -923 l-3 -923 -22 -20 c-25 -24 -38 -27 -27 -8 5 9 4 9 -6 0
-15 -14 -6 -43 14 -43 8 0 17 10 19 23 l4 22 2 -22 c1 -23 1 -23 174 -21 l172
2 -165 6 -165 6 158 2 c105 1 163 -2 176 -10 24 -15 53 -3 49 19 -3 14 -13 18
-42 17 -29 -1 -34 1 -22 8 13 7 14 13 6 23 -14 17 -14 1873 0 1890 6 7 8 21 4
31 -4 14 -3 15 4 6 15 -22 47 -10 49 18 l3 25 -11 -25 -10 -25 -19 23 c-18 21
-24 22 -182 22 l-164 0 -37 -80z m36 9 c-6 -6 -7 3 -4 23 4 28 6 29 9 9 2 -13
0 -27 -5 -32z m307 -44 c0 -5 -5 -3 -10 5 -5 8 -10 20 -10 25 0 6 5 3 10 -5 5
-8 10 -19 10 -25z m-351 -29 c-9 -8 -10 -7 -5 7 3 10 7 24 7 30 1 7 3 4 6 -7
3 -10 -1 -23 -8 -30z m298 12 c-3 -8 -6 -5 -6 6 -1 11 2 17 5 13 3 -3 4 -12 1
-19z m20 -15 c-3 -10 -5 -4 -5 12 0 17 2 24 5 18 2 -7 2 -21 0 -30z m-323 -28
c3 -8 1 -15 -4 -15 -6 0 -10 7 -10 15 0 8 2 15 4 15 2 0 6 -7 10 -15z m303
-1308 c-1 -243 -2 -44 -2 443 0 487 1 686 2 442 2 -243 2 -641 0 -885z m0
-479 c-3 -8 -6 -5 -6 6 -1 11 2 17 5 13 3 -3 4 -12 1 -19z m100 -60 c-3 -8 -6
-5 -6 6 -1 11 2 17 5 13 3 -3 4 -12 1 -19z m20 0 c-3 -8 -6 -5 -6 6 -1 11 2
17 5 13 3 -3 4 -12 1 -19z"/>
<path d="M2580 2510 c0 -5 5 -10 10 -10 6 0 10 5 10 10 0 6 -4 10 -10 10 -5 0
-10 -4 -10 -10z"/>
<path d="M680 2422 c0 -5 7 -13 16 -16 10 -4 14 -1 12 6 -5 15 -28 23 -28 10z"/>
<path d="M1220 2351 c0 -4 5 -12 12 -19 15 -15 208 -17 208 -1 0 5 3 8 8 5 4
-2 16 2 27 10 18 13 5 15 -118 13 -75 0 -137 -4 -137 -8z m173 -18 c-7 -2 -19
-2 -25 0 -7 3 -2 5 12 5 14 0 19 -2 13 -5z"/>
<path d="M1517 2352 c-9 -2 -15 -8 -12 -13 4 -5 -5 -9 -19 -9 -14 0 -28 -5
-31 -11 -5 -7 7 -8 38 -4 49 8 87 0 87 -18 0 -8 -3 -8 -12 1 -7 7 -26 12 -42
11 l-31 -1 26 -8 c15 -4 43 -19 64 -33 21 -14 44 -23 53 -19 12 4 14 1 9 -12
-6 -14 -3 -17 8 -12 9 3 13 2 10 -4 -3 -5 5 -27 19 -48 13 -21 30 -59 36 -83
7 -24 17 -54 23 -67 8 -17 6 -40 -8 -95 -10 -40 -22 -77 -27 -84 -6 -7 -8 -18
-5 -25 3 -8 8 -4 14 11 l10 25 5 -25 c4 -22 1 -26 -19 -23 -25 2 -43 -21 -36
-46 4 -12 2 -12 -5 -2 -7 10 -11 10 -21 -2 -7 -8 -10 -20 -6 -25 3 -6 0 -9 -7
-6 -7 3 -18 -5 -23 -17 -6 -13 -16 -22 -23 -20 -7 1 -22 -3 -34 -9 l-21 -11
24 -15 c17 -10 18 -12 4 -8 -64 22 -67 19 -34 -45 14 -27 25 -37 29 -30 5 9 9
9 14 1 4 -6 4 -11 0 -11 -4 0 15 -12 42 -26 27 -14 56 -32 64 -40 8 -8 30 -27
48 -43 17 -16 32 -32 32 -35 0 -4 11 -24 25 -45 13 -22 27 -52 31 -67 7 -26 8
-27 16 -9 6 15 7 13 3 -8 -3 -15 0 -47 6 -70 12 -45 19 -167 9 -167 -10 0 -30
-98 -24 -115 4 -10 2 -13 -7 -10 -9 3 -19 -7 -28 -26 -22 -49 -114 -134 -182
-168 -35 -18 -53 -29 -39 -26 19 5 22 4 10 -4 -8 -6 -27 -8 -42 -5 -16 3 -28
2 -28 -3 0 -5 -70 -10 -155 -11 -140 -1 -180 5 -142 22 10 5 10 7 0 12 -15 7
-17 34 -3 34 6 0 10 88 10 245 0 237 -1 247 -23 293 -13 26 -34 70 -48 99 -13
28 -27 49 -31 47 -4 -3 -5 2 -2 10 3 9 1 16 -5 16 -6 0 -11 10 -11 22 0 17 -3
19 -12 10 -10 -10 -10 -17 -1 -31 9 -15 7 -21 -9 -35 -11 -10 -23 -14 -26 -10
-4 4 -1 9 6 11 6 3 12 18 12 34 0 17 -4 28 -9 24 -5 -3 -13 0 -17 6 -5 8 -3 9
6 4 10 -6 12 -4 7 9 -4 9 -3 15 2 12 5 -3 11 0 14 8 6 16 -19 30 -27 15 -2 -5
-3 -4 -2 3 2 7 8 12 14 11 6 -2 9 4 6 12 -4 8 -16 15 -28 16 -19 0 -19 1 -2 8
17 7 17 8 2 24 -9 9 -15 20 -14 24 4 14 -13 53 -23 53 -5 0 -9 6 -9 14 0 8 -9
33 -20 57 l-20 44 1 -550 0 -550 -27 -21 c-15 -12 -23 -27 -20 -33 11 -17 818
-10 838 6 8 7 18 10 22 6 4 -4 4 1 0 12 -7 18 -6 19 10 5 16 -12 20 -12 36 9
9 13 22 21 28 17 13 -8 62 13 62 27 0 6 -5 6 -12 0 -7 -6 -22 -13 -33 -16 -17
-6 -17 -4 4 13 13 11 17 20 10 20 -7 0 -10 2 -7 5 3 3 17 1 32 -4 23 -10 30
-6 69 32 23 23 50 53 60 65 28 37 69 132 63 148 -3 8 -2 13 3 10 12 -8 21 45
20 108 l-2 51 -7 -63 c-4 -34 -9 -64 -11 -66 -2 -3 -4 36 -4 84 0 53 3 80 8
68 11 -32 19 -15 12 26 -4 20 -11 33 -16 30 -5 -3 -6 2 -3 10 10 25 -54 143
-105 194 -78 79 -159 131 -182 116 -8 -4 -9 -3 -5 4 7 11 -11 17 -41 13 -6 -1
-14 3 -18 9 -8 13 -35 13 -35 1 0 -5 8 -12 18 -15 10 -3 6 -4 -8 -3 -16 1 -25
8 -24 18 1 8 -6 15 -15 15 -9 0 -29 2 -46 3 -27 2 -25 4 19 15 26 8 56 11 66
9 20 -5 116 34 107 43 -4 4 -18 -1 -32 -10 -14 -9 -25 -12 -25 -6 0 5 14 17
31 26 24 12 33 13 39 4 10 -16 103 78 96 97 -3 7 0 15 6 19 7 5 8 2 3 -6 -5
-9 -4 -11 3 -6 7 4 12 13 12 21 0 7 5 15 12 17 6 2 12 13 12 24 1 11 6 26 11
33 11 20 20 165 9 158 -5 -3 -10 7 -10 21 -3 44 -31 115 -43 107 -4 -2 -13 6
-21 18 -12 21 -12 21 6 8 10 -8 -3 9 -31 38 -27 29 -62 59 -76 66 -45 24 -111
44 -125 38 -8 -3 -14 0 -14 6 0 10 -122 13 -163 3z m53 -6 c0 -3 -4 -8 -10
-11 -5 -3 -10 -1 -10 4 0 6 5 11 10 11 6 0 10 -2 10 -4z m163 -23 c-7 -2 -19
-2 -25 0 -7 3 -2 5 12 5 14 0 19 -2 13 -5z m44 -11 c9 -6 8 -11 -5 -19 -15 -9
-18 -7 -19 8 -2 20 5 23 24 11z m-50 -18 c-3 -3 -12 -4 -19 -1 -8 3 -5 6 6 6
11 1 17 -2 13 -5z m93 2 c0 -3 -4 -8 -10 -11 -5 -3 -10 -1 -10 4 0 6 5 11 10
11 6 0 10 -2 10 -4z m-195 -26 c3 -6 -1 -7 -9 -4 -18 7 -21 14 -7 14 6 0 13
-4 16 -10z m112 -142 c3 -15 9 -28 14 -28 5 0 6 -7 2 -16 -5 -13 -7 -13 -14
-2 -5 7 -9 22 -9 33 0 11 -9 31 -20 45 -26 33 -25 52 1 21 11 -14 23 -37 26
-53z m19 43 c-1 -17 -5 -26 -9 -21 -5 4 -6 17 -2 29 9 29 12 26 11 -8z m207
-59 c-7 -16 -9 -14 -17 23 -7 28 -6 29 7 10 8 -10 12 -25 10 -33z m-33 -59
c-11 -17 -11 -17 -6 0 3 10 7 26 7 35 1 15 2 15 6 0 2 -10 -1 -25 -7 -35z m37
15 c-3 -8 -6 -5 -6 6 -1 11 2 17 5 13 3 -3 4 -12 1 -19z m-213 -170 c-4 -13
-7 -32 -6 -43 2 -17 1 -18 -7 -4 -7 11 -7 26 1 47 14 36 24 36 12 0z m214 -10
c-1 -24 -3 -37 -6 -30 -6 20 -20 14 -31 -15 -10 -25 -10 -25 -5 -3 3 14 6 39
6 55 0 23 1 25 5 8 2 -13 9 -23 15 -23 6 0 8 11 6 25 -3 14 -1 25 3 25 5 0 8
-19 7 -42z m-211 -80 c-3 -8 -6 -5 -6 6 -1 11 2 17 5 13 3 -3 4 -12 1 -19z
m133 -48 c0 -5 -4 -10 -10 -10 -5 0 -10 5 -10 10 0 6 5 10 10 10 6 0 10 -4 10
-10z m-919 -62 c-8 -20 -9 -18 -8 15 1 24 4 32 9 23 4 -8 4 -25 -1 -38z m879
17 c0 -8 -4 -15 -10 -15 -5 0 -7 7 -4 15 4 8 8 15 10 15 2 0 4 -7 4 -15z
m-170 -37 c0 -16 -3 -19 -11 -11 -6 6 -8 16 -5 22 11 17 16 13 16 -11z m-679
-31 c-10 -9 -11 -8 -5 6 3 10 9 15 12 12 3 -3 0 -11 -7 -18z m-1 -39 c0 -17
-15 -7 -27 18 -12 26 -12 26 7 9 11 -10 20 -22 20 -27z m648 -25 c-10 -2 -26
-2 -35 0 -10 3 -2 5 17 5 19 0 27 -2 18 -5z m-28 -17 c0 -3 -4 -8 -10 -11 -5
-3 -10 -1 -10 4 0 6 5 11 10 11 6 0 10 -2 10 -4z m25 -16 c-3 -5 -12 -10 -18
-10 -7 0 -6 4 3 10 19 12 23 12 15 0z m214 -36 c-11 -13 -9 -14 16 -8 18 4 26
3 22 -3 -4 -6 -17 -13 -30 -15 -20 -4 -24 -1 -22 16 3 26 3 26 16 26 8 0 7 -5
-2 -16z m126 -107 c-18 -9 -55 0 -55 14 0 13 18 11 22 -2 2 -7 9 -10 16 -8 7
2 -3 19 -23 41 -51 53 -43 60 10 8 37 -36 42 -46 30 -53z m-235 63 c0 -5 -2
-10 -4 -10 -3 0 -8 5 -11 10 -3 6 -1 10 4 10 6 0 11 -4 11 -10z m-703 -22 c-3
-8 -6 -5 -6 6 -1 11 2 17 5 13 3 -3 4 -12 1 -19z m768 -80 l16 -33 -21 24
c-11 13 -20 27 -20 32 0 18 10 8 25 -23z m205 22 c0 -5 -2 -10 -4 -10 -3 0 -8
5 -11 10 -3 6 -1 10 4 10 6 0 11 -4 11 -10z m-865 -40 c13 -27 14 -32 2 -20
-8 8 -18 26 -22 40 -9 32 -2 25 20 -20z m895 -23 c0 -5 -4 -5 -10 -2 -5 3 -10
14 -10 23 0 15 2 15 10 2 5 -8 10 -19 10 -23z m-875 -37 c3 -5 1 -10 -4 -10
-6 0 -11 5 -11 10 0 6 2 10 4 10 3 0 8 -4 11 -10z m-25 -21 c0 -5 -4 -9 -10
-9 -5 0 -10 7 -10 16 0 8 5 12 10 9 6 -3 10 -10 10 -16z m58 -269 c-2 -263 -6
-232 -10 77 -2 105 0 186 4 180 4 -7 7 -122 6 -257z m674 158 c-6 -6 -7 0 -4
19 5 21 7 23 10 9 2 -10 0 -22 -6 -28z m35 -50 c-3 -8 -6 -5 -6 6 -1 11 2 17
5 13 3 -3 4 -12 1 -19z m-20 -20 c-3 -8 -6 -5 -6 6 -1 11 2 17 5 13 3 -3 4
-12 1 -19z m146 -143 c-3 -9 -8 -14 -10 -11 -3 3 -2 9 2 15 9 16 15 13 8 -4z
m-7 -47 c0 -18 -1 -18 -13 -2 -9 12 -13 14 -13 4 0 -7 -3 -11 -6 -7 -9 8 3 24
18 24 8 0 14 -9 14 -19z m-200 -20 c4 -7 4 -10 -1 -6 -4 4 -14 3 -22 -3 -13
-11 -19 2 -6 14 10 11 21 8 29 -5z m171 -32 c-18 -27 -52 -62 -83 -86 -17 -14
-18 -14 -6 2 8 9 11 21 8 27 -8 13 3 38 19 45 9 3 12 0 8 -10 -3 -7 -2 -14 2
-14 11 0 55 49 55 62 0 6 3 8 6 5 4 -4 -1 -17 -9 -31z m-220 -2 c-3 -3 -12 -4
-19 -1 -8 3 -5 6 6 6 11 1 17 -2 13 -5z m-53 -59 c-4 -8 -10 -15 -15 -15 -4 0
-6 7 -3 15 4 8 10 15 15 15 4 0 6 -7 3 -15z m-69 -53 c-17 -14 -65 -32 -65
-24 0 5 12 13 28 19 34 14 49 16 37 5z m8 -39 c3 -5 -11 -9 -32 -10 -27 -1
-31 1 -16 7 26 11 43 12 48 3z m-45 -38 c8 -7 -659 -4 -686 3 -13 4 135 6 329
4 194 -1 355 -4 357 -7z m79 9 c-3 -3 -12 -4 -19 -1 -8 3 -5 6 6 6 11 1 17 -2
13 -5z"/>
<path d="M1930 800 c0 -5 5 -10 10 -10 6 0 10 5 10 10 0 6 -4 10 -10 10 -5 0
-10 -4 -10 -10z"/>
<path d="M2072 2179 c-17 -40 -28 -77 -25 -83 4 -6 6 -22 5 -36 -3 -20 1 -17
19 15 12 22 21 48 21 58 -1 9 3 15 7 13 16 -11 27 38 16 72 l-11 32 -32 -71z
m35 -1 c2 -17 0 -19 -7 -8 -5 8 -6 18 -4 22 8 12 10 10 11 -14z m-30 -40 c-3
-8 -6 -5 -6 6 -1 11 2 17 5 13 3 -3 4 -12 1 -19z"/>
<path d="M1075 1509 c-4 -6 -5 -12 -2 -15 2 -3 7 2 10 11 7 17 1 20 -8 4z"/>
<path d="M760 495 c0 -8 5 -15 10 -15 6 0 10 7 10 15 0 8 -4 15 -10 15 -5 0
-10 -7 -10 -15z"/>
</g>
</svg>
